{"title":"Mariposa HD","uid":6257548,"size":10618389329,"categoryP":"video","categoryS":"hd___movies","magnet":"?xt=urn:btih:89e6da913ead876fe99795a2c4d88869210f3c0f&amp;dn=Mariposa+HD&amp;tr=udp%3A%2F%2Ftracker.openbittorrent.com%3A80&amp;tr=udp%3A%2F%2Fopen.demonii.com%3A1337&amp;tr=udp%3A%2F%2Ftracker.coppersurfer.tk%3A6969&amp;tr=udp%3A%2F%2Fexodus.desync.com%3A6969","seeders":0,"leechers":0,"uploader":"Rumcyse","files":10,"time":1300633016,"description":"mariposaHD.S01E01.720p.en.wmv\nGeneral\nComplete name                    : L:\\Filmy\\MariposaHD.TV\\mariposaHD.S01E01.720p.en.wmv\nFormat                           : Windows Media\nFile size                        : 1.36 GiB\nDuration                         : 36mn 26s\nOverall bit rate mode            : Variable\nOverall bit rate                 : 5 334 Kbps\nMaximum Overall bit rate         : 22.1 Mbps\nMovie name                       : mariposaHD S01E01\nPerformer                        : mariposaHD\nLaw rating                       : PG-TV\nEncoded date                     : UTC 2005-11-30 02:56:30.703\nCopyright                        : Ã‚Â© 2005 Motamorfosis Productions\n\nVideo\nID                               : 2\nFormat                           : VC-1\nFormat profile                   : MP@HL\nCodec ID                         : WMV3\nCodec ID/Info                    : Windows Media Video 9\nCodec ID/Hint                    : WMV3\nDescription of the codec         : Windows Media Video 9 - Professional\nDuration                         : 36mn 26s\nBit rate mode                    : Variable\nBit rate                         : 5 000 Kbps\nWidth                            : 1 280 pixels\nHeight                           : 720 pixels\nDisplay aspect ratio             : 16:9\nFrame rate                       : 29.970 fps\nBit depth                        : 8 bits\nScan type                        : Progressive\nBits/(Pixel*Frame)               : 0.181\nStream size                      : 1.27 GiB (94%)\nLanguage                         : English (US)\n\nAudio\nID                               : 1\nFormat                           : WMA\nFormat profile                   : Pro\nCodec ID                         : 162\nCodec ID/Info                    : Windows Media Audio\nDescription of the codec         : Windows Media Audio 9.1 Professional - 192 kbps, 48 kHz, 2 channel 24 bit 2-pass VBR\nDuration                         : 36mn 26s\nBit rate mode                    : Variable\nBit rate                         : 192 Kbps\nChannel(s)                       : 2 channels\nSampling rate                    : 48.0 KHz\nBit depth                        : 24 bits\nStream size                      : 50.1 MiB (4%)\nLanguage                         : English (US)\n\n\n\nmariposaHD.S01E02.1080i.en.wmv\nGeneral\nComplete name                    : L:\\Filmy\\MariposaHD.TV\\mariposaHD.S01E02.1080i.en.wmv\nFormat                           : Windows Media\nFile size                        : 1.65 GiB\nDuration                         : 28mn 0s\nOverall bit rate mode            : Variable\nOverall bit rate                 : 8 420 Kbps\nMaximum Overall bit rate         : 80.2 Mbps\nMovie name                       : mariposaHD S01E02\nPerformer                        : mariposaHD\nLaw rating                       : PG-TV\nEncoded date                     : UTC 2006-02-21 21:04:39.671\nCopyright                        : Ã‚Â© 2006 Motamorfosis Productions\n\nVideo\nID                               : 2\nFormat                           : VC-1\nFormat profile                   : MP@HL\nCodec ID                         : WMV3\nCodec ID/Info                    : Windows Media Video 9\nCodec ID/Hint                    : WMV3\nDescription of the codec         : Windows Media Video 9 - Professional\nDuration                         : 28mn 0s\nBit rate mode                    : Variable\nBit rate                         : 8 000 Kbps\nWidth                            : 1 440 pixels\nHeight                           : 1 080 pixels\nDisplay aspect ratio             : 4:3\nFrame rate                       : 29.970 fps\nBit depth                        : 8 bits\nScan type                        : Progressive\nBits/(Pixel*Frame)               : 0.172\nStream size                      : 1.57 GiB (95%)\nLanguage                         : English (US)\n\nAudio\nID                               : 1\nFormat                           : WMA\nFormat profile                   : Pro\nCodec ID                         : 162\nCodec ID/Info                    : Windows Media Audio\nDescription of the codec         : Windows Media Audio 9.1 Professional - 192 kbps, 48 kHz, 2 channel 24 bit 2-pass VBR\nDuration                         : 28mn 0s\nBit rate mode                    : Variable\nBit rate                         : 192 Kbps\nChannel(s)                       : 2 channels\nSampling rate                    : 48.0 KHz\nBit depth                        : 24 bits\nStream size                      : 38.5 MiB (2%)\nLanguage                         : English (US)\n\n\n\nmariposaHD.S01E03.1080i.en.wmv\nGeneral\nComplete name                    : L:\\Filmy\\MariposaHD.TV\\mariposaHD.S01E03.1080i.en.wmv\nFormat                           : Windows Media\nFile size                        : 1.42 GiB\nDuration                         : 24mn 11s\nOverall bit rate mode            : Variable\nOverall bit rate                 : 8 420 Kbps\nMaximum Overall bit rate         : 21.0 Mbps\nMovie name                       : mariposaHD S01E03\nPerformer                        : mariposaHD\nLaw rating                       : TV-PG\nEncoded date                     : UTC 2006-03-31 09:58:47.481\nCopyright                        : Ã‚Â© 2006 Motamorfosis Productions\n\nVideo\nID                               : 2\nFormat                           : VC-1\nFormat profile                   : MP@HL\nCodec ID                         : WMV3\nCodec ID/Info                    : Windows Media Video 9\nCodec ID/Hint                    : WMV3\nDescription of the codec         : Windows Media Video 9 - Professional\nDuration                         : 24mn 11s\nBit rate mode                    : Variable\nBit rate                         : 8 000 Kbps\nWidth                            : 1 440 pixels\nHeight                           : 1 080 pixels\nDisplay aspect ratio             : 4:3\nFrame rate                       : 29.970 fps\nBit depth                        : 8 bits\nScan type                        : Progressive\nBits/(Pixel*Frame)               : 0.172\nStream size                      : 1.35 GiB (95%)\nLanguage                         : English (US)\n\nAudio\nID                               : 1\nFormat                           : WMA\nFormat profile                   : Pro\nCodec ID                         : 162\nCodec ID/Info                    : Windows Media Audio\nDescription of the codec         : Windows Media Audio 9.1 Professional - 192 kbps, 48 kHz, 2 channel 24 bit 2-pass VBR\nDuration                         : 24mn 11s\nBit rate mode                    : Variable\nBit rate                         : 192 Kbps\nChannel(s)                       : 2 channels\nSampling rate                    : 48.0 KHz\nBit depth                        : 24 bits\nStream size                      : 33.3 MiB (2%)\nLanguage                         : English (US)\n\n\n\nmariposaHD.S01E04.720p.en.wmv\nGeneral\nComplete name                    : L:\\Filmy\\MariposaHD.TV\\mariposaHD.S01E04.720p.en.wmv\nFormat                           : Windows Media\nFile size                        : 933 MiB\nDuration                         : 27mn 26s\nOverall bit rate mode            : Constant\nOverall bit rate                 : 4 751 Kbps\nMaximum Overall bit rate         : 5 234 Kbps\nMovie name                       : mariposaHD S01E04\nPerformer                        : mariposaHD\nLaw rating                       : TV-PG\nEncoded date                     : UTC 2006-07-03 04:05:09.677\nCopyright                        : Ã‚Â© 2006 Motamorfosis Productions\n\nVideo\nID                               : 2\nFormat                           : VC-1\nFormat profile                   : MP@HL\nCodec ID                         : WMV3\nCodec ID/Info                    : Windows Media Video 9\nCodec ID/Hint                    : WMV3\nDescription of the codec         : Windows Media Video 9 - Professional\nDuration                         : 27mn 26s\nBit rate mode                    : Constant\nBit rate                         : 5 000 Kbps\nWidth                            : 1 280 pixels\nHeight                           : 720 pixels\nDisplay aspect ratio             : 16:9\nFrame rate                       : 29.970 fps\nBit depth                        : 8 bits\nScan type                        : Progressive\nBits/(Pixel*Frame)               : 0.181\nStream size                      : 982 MiB\nLanguage                         : English (US)\n\nAudio\nID                               : 1\nFormat                           : WMA\nFormat profile                   : Pro\nCodec ID                         : 162\nCodec ID/Info                    : Windows Media Audio\nDescription of the codec         : Windows Media Audio 9.1 Professional - 192 kbps, 48 kHz, 2 channel 24 bit (A/V) 1-pass CBR\nDuration                         : 27mn 26s\nBit rate mode                    : Constant\nBit rate                         : 192 Kbps\nChannel(s)                       : 2 channels\nSampling rate                    : 48.0 KHz\nBit depth                        : 24 bits\nStream size                      : 37.7 MiB (4%)\nLanguage                         : English (US)\n\n\n\nmariposaHD.S01E05.720p.en.wmv\nGeneral\nComplete name                    : L:\\Filmy\\MariposaHD.TV\\mariposaHD.S01E05.720p.en.wmv\nFormat                           : Windows Media\nFile size                        : 1.12 GiB\nDuration                         : 33mn 8s\nOverall bit rate mode            : Constant\nOverall bit rate                 : 4 855 Kbps\nMaximum Overall bit rate         : 5 234 Kbps\nMovie name                       : mariposaHD S01E05\nPerformer                        : mariposaHD\nLaw rating                       : TV-PG\nEncoded date                     : UTC 2006-09-19 11:35:13.156\nCopyright                        : Ã‚Â© 2006 Motamorfosis Productions\n\nVideo\nID                               : 2\nFormat                           : VC-1\nFormat profile                   : MP@HL\nCodec ID                         : WMV3\nCodec ID/Info                    : Windows Media Video 9\nCodec ID/Hint                    : WMV3\nDescription of the codec         : Windows Media Video 9 - Professional\nDuration                         : 33mn 8s\nBit rate mode                    : Constant\nBit rate                         : 5 000 Kbps\nWidth                            : 1 280 pixels\nHeight                           : 720 pixels\nDisplay aspect ratio             : 16:9\nFrame rate                       : 29.970 fps\nBit depth                        : 8 bits\nScan type                        : Progressive\nBits/(Pixel*Frame)               : 0.181\nStream size                      : 1.16 GiB\nLanguage                         : English (US)\n\nAudio\nID                               : 1\nFormat                           : WMA\nFormat profile                   : Pro\nCodec ID                         : 162\nCodec ID/Info                    : Windows Media Audio\nDescription of the codec         : Windows Media Audio 9.1 Professional - 192 kbps, 48 kHz, 2 channel 24 bit (A/V) 2-pass CBR\nDuration                         : 33mn 8s\nBit rate mode                    : Constant\nBit rate                         : 192 Kbps\nChannel(s)                       : 2 channels\nSampling rate                    : 48.0 KHz\nBit depth                        : 24 bits\nStream size                      : 45.5 MiB (4%)\nLanguage                         : English (US)\n\n\n\nmariposaHD.S01E06.720p.en.wmv\nGeneral\nComplete name                    : L:\\Filmy\\MariposaHD.TV\\mariposaHD.S01E06.720p.en.wmv\nFormat                           : Windows Media\nFile size                        : 1.14 GiB\nDuration                         : 32mn 52s\nOverall bit rate mode            : Constant\nOverall bit rate                 : 4 954 Kbps\nMaximum Overall bit rate         : 5 234 Kbps\nMovie name                       : mariposaHD S01E06\nPerformer                        : mariposaHD\nLaw rating                       : TV-PG\nEncoded date                     : UTC 2007-04-01 05:11:59.500\nCopyright                        : Ã‚Â© 2007 Motamorfosis Productions\n\nVideo\nID                               : 2\nFormat                           : VC-1\nFormat profile                   : MP@HL\nCodec ID                         : WMV3\nCodec ID/Info                    : Windows Media Video 9\nCodec ID/Hint                    : WMV3\nDescription of the codec         : Windows Media Video 9 - Professional\nDuration                         : 32mn 52s\nBit rate mode                    : Constant\nBit rate                         : 5 000 Kbps\nWidth                            : 1 280 pixels\nHeight                           : 720 pixels\nDisplay aspect ratio             : 16:9\nFrame rate                       : 29.970 fps\nBit depth                        : 8 bits\nScan type                        : Progressive\nBits/(Pixel*Frame)               : 0.181\nStream size                      : 1.15 GiB\nLanguage                         : English (US)\n\nAudio\nID                               : 1\nFormat                           : WMA\nFormat profile                   : Pro\nCodec ID                         : 162\nCodec ID/Info                    : Windows Media Audio\nDescription of the codec         : Windows Media Audio 9.1 Professional - 192 kbps, 48 kHz, 2 channel 24 bit (A/V) 2-pass CBR\nDuration                         : 32mn 52s\nBit rate mode                    : Constant\nBit rate                         : 192 Kbps\nChannel(s)                       : 2 channels\nSampling rate                    : 48.0 KHz\nBit depth                        : 24 bits\nStream size                      : 45.1 MiB (4%)\nLanguage                         : English (US)\n\n\n\nmariposaHD.S01E07.720p.en.wmv\nGeneral\nComplete name                    : L:\\Filmy\\MariposaHD.TV\\mariposaHD.S01E07.720p.en.wmv\nFormat                           : Windows Media\nFile size                        : 927 MiB\nDuration                         : 27mn 40s\nOverall bit rate mode            : Constant\nOverall bit rate                 : 4 679 Kbps\nMaximum Overall bit rate         : 5 234 Kbps\nMovie name                       : mariposaHD S01E07\nPerformer                        : mariposaHD\nLaw rating                       : TV-PG\nEncoded date                     : UTC 2007-09-15 05:36:16.125\nCopyright                        : Ã‚Â© 2007 Motamorfosis Productions\n\nVideo\nID                               : 2\nFormat                           : VC-1\nFormat profile                   : MP@HL\nCodec ID                         : WMV3\nCodec ID/Info                    : Windows Media Video 9\nCodec ID/Hint                    : WMV3\nDescription of the codec         : Windows Media Video 9 - Professional\nDuration                         : 27mn 40s\nBit rate mode                    : Constant\nBit rate                         : 5 000 Kbps\nWidth                            : 1 280 pixels\nHeight                           : 720 pixels\nDisplay aspect ratio             : 16:9\nFrame rate                       : 29.970 fps\nBit depth                        : 8 bits\nScan type                        : Progressive\nBits/(Pixel*Frame)               : 0.181\nStream size                      : 990 MiB\nLanguage                         : English (US)\n\nAudio\nID                               : 1\nFormat                           : WMA\nFormat profile                   : Pro\nCodec ID                         : 162\nCodec ID/Info                    : Windows Media Audio\nDescription of the codec         : Windows Media Audio 9.1 Professional - 192 kbps, 48 kHz, 2 channel 24 bit (A/V) 2-pass CBR\nDuration                         : 27mn 40s\nBit rate mode                    : Constant\nBit rate                         : 192 Kbps\nChannel(s)                       : 2 channels\nSampling rate                    : 48.0 KHz\nBit depth                        : 24 bits\nStream size                      : 38.0 MiB (4%)\nLanguage                         : English (US)\n\n\n\nmariposaHD.S01E08.1080p.en.wmv\nGeneral\nComplete name                    : L:\\Filmy\\MariposaHD.TV\\mariposaHD.S01E08.1080p.en.wmv\nFormat                           : Windows Media\nFile size                        : 1.38 GiB\nDuration                         : 26mn 15s\nOverall bit rate mode            : Constant\nOverall bit rate                 : 7 546 Kbps\nMaximum Overall bit rate         : 8 256 Kbps\nMovie name                       : mariposaHD S01E08\nPerformer                        : mariposaHD\nLaw rating                       : PG-TV\nEncoded date                     : UTC 2008-04-06 10:54:04.203\nCopyright                        : Ã‚Â© 2008 Motamorfosis Productions\n\nVideo\nID                               : 2\nFormat                           : VC-1\nFormat profile                   : SP\nCodec ID                         : WMV3\nCodec ID/Info                    : Windows Media Video 9\nCodec ID/Hint                    : WMV3\nDescription of the codec         : Windows Media Video 9 - Professional\nDuration                         : 26mn 15s\nBit rate mode                    : Constant\nBit rate                         : 8 000 Kbps\nWidth                            : 1 440 pixels\nHeight                           : 1 080 pixels\nDisplay aspect ratio             : 4:3\nFrame rate                       : 29.970 fps\nBit depth                        : 8 bits\nScan type                        : Progressive\nBits/(Pixel*Frame)               : 0.172\nStream size                      : 1.47 GiB\nLanguage                         : English (US)\n\nAudio\nID                               : 1\nFormat                           : WMA\nFormat profile                   : Pro\nCodec ID                         : 162\nCodec ID/Info                    : Windows Media Audio\nDescription of the codec         : Windows Media Audio 9.1 Professional - 192 kbps, 48 kHz, 2 channel 24 bit (A/V) 2-pass CBR\nDuration                         : 26mn 15s\nBit rate mode                    : Constant\nBit rate                         : 192 Kbps\nChannel(s)                       : 2 channels\nSampling rate                    : 48.0 KHz\nBit depth                        : 24 bits\nStream size                      : 36.1 MiB (3%)\nLanguage                         : English (US)\n\n","torrent":{"xt":"urn:btih:89e6da913ead876fe99795a2c4d88869210f3c0f","amp;dn":"Mariposa+HD","amp;tr":["udp%3A%2F%2Ftracker.openbittorrent.com%3A80","udp%3A%2F%2Fopen.demonii.com%3A1337","udp%3A%2F%2Ftracker.coppersurfer.tk%3A6969","udp%3A%2F%2Fexodus.desync.com%3A6969"],"infoHash":"89e6da913ead876fe99795a2c4d88869210f3c0f","infoHashBuffer":{"type":"Buffer","data":[137,230,218,145,62,173,135,111,233,151,149,162,196,216,136,105,33,15,60,15]},"announce":[],"urlList":[]}}